<?xml version="1.0" standalone="no"?>
<!DOCTYPE svg PUBLIC "-//W3C//DTD SVG 20010904//EN"
 "http://www.w3.org/TR/2001/REC-SVG-20010904/DTD/svg10.dtd">
<svg version="1.0" xmlns="http://www.w3.org/2000/svg"
 width="400.000000pt" height="400.000000pt" viewBox="0 0 400.000000 400.000000"
 preserveAspectRatio="xMidYMid meet">
<metadata>
Created by potrace 1.11, written by Peter Selinger 2001-2013
</metadata>
<g transform="translate(0.000000,400.000000) scale(0.100000,-0.100000)"
fill="#000000" stroke="none">
<path d="M1760 3994 c-19 -2 -90 -9 -157 -14 -395 -34 -811 -135 -1205 -292
l-28 -10 0 -1067 c0 -1227 1 -1245 85 -1497 280 -845 1202 -1309 2048 -1033
518 169 935 608 1068 1124 55 211 52 146 56 1351 4 1071 3 1122 -14 1129 -536
211 -1095 318 -1639 313 -98 0 -195 -3 -214 -4z m510 -365 c317 -22 583 -72
903 -171 l97 -30 0 -936 c0 -998 -2 -1032 -50 -1209 -52 -190 -172 -394 -319
-543 -177 -179 -362 -283 -619 -347 -95 -24 -127 -27 -277 -27 -188 0 -273 13
-425 66 -356 125 -646 412 -775 768 -14 41 -36 113 -48 160 -20 83 -21 108
-24 1077 l-4 992 98 30 c485 149 957 205 1443 170z"/>
<path d="M2091 2886 l-244 -41 -168 -444 c-93 -245 -167 -447 -164 -450 5 -4
280 35 317 45 18 5 23 17 -187 -511 -70 -176 -136 -342 -146 -370 l-20 -50 35
40 c19 22 252 292 518 600 267 308 481 562 476 563 -5 2 -96 -4 -203 -13 -106
-9 -198 -16 -204 -14 -5 2 53 150 130 329 76 179 142 333 145 343 7 23 6 23
-285 -27z"/>
</g>
</svg>
